<svg width="29" height="30" viewBox="0 0 29 30" fill="none" xmlns="http://www.w3.org/2000/svg">
<path d="M7 6.37758C7 3.87157 8.85515 1.75265 11.3392 1.42144L13.9865 1.06847C14.3279 1.02295 14.6731 1.01282 15.0167 1.03827L22.9078 1.6228C25.7027 1.82983 27.7816 4.29326 27.5159 7.08318L27.0451 12.026C27.0151 12.3413 27.0151 12.6587 27.0451 12.974L27.4787 17.526C27.7582 20.4614 25.4499 23 22.5012 23H12C9.23858 23 7 20.7614 7 18V6.37758Z" fill="#F0ECE1" stroke="black" stroke-width="2" stroke-dasharray="2 2"/>
<path d="M1.20391 11.4861C1.08793 8.93439 2.91387 6.70556 5.43847 6.31716L6.95043 6.08455C7.31568 6.02836 7.68604 6.01283 8.05472 6.03826L17.1052 6.66243C19.8234 6.84989 21.891 9.17907 21.755 11.9003L21.5 17L21.7814 23.1901C21.9034 25.8754 19.8805 28.1766 17.2018 28.3999L16 28.5L6.08107 28.1694C3.28865 28.0763 1.11435 25.7129 1.25388 22.9225L1.5 18L1.20391 11.4861Z" fill="#F0ECE1" stroke="black" stroke-width="2"/>
<line x1="11.5" y1="12" x2="11.5" y2="21" stroke="black"/>
<line x1="7" y1="16.5" x2="16" y2="16.5" stroke="black"/>
</svg>
