<svg id="Layer_1" data-name="Layer 1" xmlns="http://www.w3.org/2000/svg" viewBox="0 0 600 600"><defs><style>.cls-1{fill:#646464;}</style></defs><path class="cls-1" d="M569.8,573.44H26.56V30.2H569.8Zm-530.24-13H556.8V43.2H39.56Z"/><path class="cls-1" d="M298.83,397.62a95.43,95.43,0,1,1,95.43-95.42A95.53,95.53,0,0,1,298.83,397.62Zm0-177.85a82.43,82.43,0,1,0,82.43,82.43A82.53,82.53,0,0,0,298.83,219.77Z"/><path class="cls-1" d="M447.77,196.43a43.17,43.17,0,1,1,43.17-43.17A43.22,43.22,0,0,1,447.77,196.43Zm0-73.34a30.17,30.17,0,1,0,30.17,30.17A30.21,30.21,0,0,0,447.77,123.09Z"/></svg>