<?xml version="1.0" encoding="utf-8"?>
<!-- Generator: Adobe Illustrator 25.2.1, SVG Export Plug-In . SVG Version: 6.00 Build 0)  -->
<svg version="1.1" id="Layer_1" xmlns="http://www.w3.org/2000/svg" xmlns:xlink="http://www.w3.org/1999/xlink" x="0px" y="0px"
	 viewBox="0 0 1080 1080" style="enable-background:new 0 0 1080 1080;" xml:space="preserve">
<style type="text/css">
	.st0{fill:none;stroke:#000000;stroke-width:8.6001;stroke-linecap:round;stroke-linejoin:round;stroke-miterlimit:10;}
</style>
<g>
	<g>
		<path d="M263,453.09h172.25l1.07,42.93h-5.87c-0.89-6.22-2.18-11.64-3.87-16.27c-1.69-4.62-3.69-8.53-6-11.73
			c-1.42-1.78-2.8-3.24-4.13-4.4c-1.33-1.16-3.11-2.09-5.33-2.8c-2.22-0.72-4.98-1.16-8.27-1.33c-3.29-0.18-7.42-0.27-12.4-0.27
			h-28.53v125.32c0,5.87,0.04,10.71,0.13,14.53s0.27,6.93,0.53,9.33c0.27,2.4,0.58,4.27,0.93,5.6c0.36,1.33,0.89,2.62,1.6,3.87
			c1.42,2.49,3.56,4.27,6.4,5.33c2.84,1.07,7.2,1.6,13.07,1.6h8.53v6.13h-88.53v-6.13h9.07c5.87,0,10.27-0.53,13.2-1.6
			c2.93-1.07,5.11-2.84,6.53-5.33c0.53-1.25,1.02-2.53,1.47-3.87c0.44-1.33,0.76-3.2,0.93-5.6c0.18-2.4,0.31-5.47,0.4-9.2
			c0.09-3.73,0.13-8.62,0.13-14.67V459.23h-26.4h-9.87c-2.31,0-4.18,0.04-5.6,0.13c-1.42,0.09-2.58,0.27-3.47,0.53
			s-1.96,0.58-3.2,0.93c-9.95,3.02-16.62,14.75-20,35.2h-5.87L263,453.09z"/>
		<path d="M465.3,576.82c-2.13,5.33-3.91,9.69-5.33,13.07c-1.42,3.38-2.49,6.18-3.2,8.4c-0.71,2.22-1.2,4.13-1.47,5.73
			c-0.27,1.6-0.4,3.2-0.4,4.8c0,4.62,1.6,8.44,4.8,11.47c3.2,3.02,7.38,4.53,12.53,4.53h2.13v6.13h-52.8v-6.13l2.4-0.27
			c4.8-0.89,8.84-2.67,12.13-5.33c3.29-2.67,6.36-6.58,9.2-11.73c0.36-0.89,0.93-2.13,1.73-3.73c0.8-1.6,1.64-3.64,2.53-6.13
			l9.87-23.46l51.46-123.72h5.07l59.46,141.59c2.84,7.11,5.24,12.67,7.2,16.67c1.96,4,3.87,7.11,5.73,9.33
			c1.87,2.22,3.91,3.73,6.13,4.53c2.22,0.8,5.2,1.56,8.93,2.27h1.6v6.13h-69.86v-6.13h2.13c7.47,0,12.62-0.67,15.46-2
			c2.84-1.33,4.27-3.78,4.27-7.33c0-0.71-0.04-1.38-0.13-2c-0.09-0.62-0.31-1.47-0.67-2.53c-0.36-1.07-0.93-2.53-1.73-4.4
			c-0.8-1.87-2-4.58-3.6-8.13l-13.6-32.8h-67.46L465.3,576.82z M472.23,559.49h62.93l-31.46-75.73L472.23,559.49z"/>
		<path d="M668.38,584.82c0,5.87,0.04,10.67,0.13,14.4c0.09,3.73,0.22,6.8,0.4,9.2c0.18,2.4,0.49,4.31,0.93,5.73
			c0.45,1.42,0.93,2.76,1.47,4c1.42,2.49,3.6,4.22,6.53,5.2c2.93,0.98,7.33,1.47,13.2,1.47h4.53v6.13h-79.99v-6.13h4.53
			c5.87,0,10.27-0.49,13.2-1.47c2.93-0.98,5.11-2.71,6.53-5.2c0.53-1.24,1.02-2.58,1.47-4c0.45-1.42,0.76-3.29,0.93-5.6
			c0.18-2.31,0.31-5.33,0.4-9.07c0.09-3.73,0.13-8.62,0.13-14.67v-87.19c0-6.4-0.04-11.6-0.13-15.6c-0.09-4-0.31-7.2-0.67-9.6
			c-0.36-2.4-0.8-4.27-1.33-5.6c-0.53-1.33-1.33-2.53-2.4-3.6c-0.89-0.89-1.73-1.6-2.53-2.13c-0.8-0.53-1.91-0.93-3.33-1.2
			c-1.42-0.27-3.2-0.44-5.33-0.53c-2.13-0.09-4.89-0.13-8.27-0.13h-3.2v-6.13h79.99v6.13h-3.2c-6.75,0-11.38,0.27-13.87,0.8
			c-2.49,0.53-4.53,1.78-6.13,3.73c-0.89,1.07-1.6,2.27-2.13,3.6c-0.53,1.33-0.93,3.2-1.2,5.6c-0.27,2.4-0.44,5.56-0.53,9.47
			c-0.09,3.91-0.13,8.98-0.13,15.2v35.2h93.06v-35.2c0-6.4-0.04-11.6-0.13-15.6c-0.09-4-0.31-7.2-0.67-9.6s-0.8-4.27-1.33-5.6
			c-0.53-1.33-1.33-2.53-2.4-3.6c-0.89-0.89-1.73-1.6-2.53-2.13s-1.91-0.93-3.33-1.2s-3.2-0.44-5.33-0.53
			c-2.13-0.09-4.89-0.13-8.27-0.13h-4.8v-6.13h81.06v6.13h-2.67c-6.75,0-11.42,0.27-14,0.8c-2.58,0.53-4.58,1.78-6,3.73
			c-0.89,1.07-1.6,2.27-2.13,3.6c-0.53,1.33-0.93,3.2-1.2,5.6c-0.27,2.4-0.44,5.56-0.53,9.47c-0.09,3.91-0.13,8.98-0.13,15.2v87.19
			c0,5.87,0.04,10.67,0.13,14.4c0.09,3.73,0.27,6.8,0.53,9.2c0.27,2.4,0.58,4.31,0.93,5.73s0.89,2.76,1.6,4
			c1.42,2.49,3.56,4.22,6.4,5.2c2.84,0.98,7.2,1.47,13.07,1.47h4v6.13h-81.06v-6.13h6.13c5.87,0,10.27-0.49,13.2-1.47
			c2.93-0.98,5.11-2.71,6.53-5.2c0.53-1.24,1.02-2.58,1.47-4c0.45-1.42,0.76-3.33,0.93-5.73c0.18-2.4,0.31-5.47,0.4-9.2
			c0.09-3.73,0.13-8.53,0.13-14.4v-42.93h-93.06V584.82z"/>
	</g>
	<g>
		<path d="M458.99,958.3c-70.1,0-147.99-7.19-197.58-58.38c-20.22-20.87-33.37-46.83-46.09-71.93
			c-37.38-73.76-79.75-157.37-89.46-245.93c-5.22-47.65-1.29-96.8,11.7-146.1c12.07-45.82,30.49-85.16,54.77-116.94
			c21.9-28.67,50.59-54.44,90.31-81.11c67.12-45.07,146.01-79.73,234.5-103.02c50.27-13.23,96.52-16.53,137.46-9.79
			c47.78,7.85,88.52,29.44,121.08,64.15c13.37,14.25,28.04,27.66,42.23,40.62c14.57,13.32,29.64,27.08,43.42,41.86
			c29.53,31.68,52.35,71.49,67.85,118.31c14.58,44.07,23.14,94.8,26.17,155.08c2.81,55.9,2.06,128.1-28.94,190.84
			c-36.76,74.4-110.61,124.33-169.94,164.46c-23.5,15.89-50.13,33.89-79.57,43.41c-29.07,9.4-59.7,10.46-89.33,11.48
			c-41.44,1.43-84.29,2.91-126.5,3C460.38,958.3,459.68,958.3,458.99,958.3z M612.08,130.13c-28.67,0-59.61,4.35-92.76,13.08
			c-87.56,23.04-165.58,57.31-231.9,101.84c-38.92,26.13-66.97,51.3-88.27,79.19c-23.58,30.87-41.51,69.2-53.28,113.91
			c-12.71,48.27-16.57,96.38-11.46,142.97c9.53,87.01,49.72,166.3,88.58,242.98c12.43,24.53,25.29,49.9,44.6,69.83
			c47.84,49.38,124.66,55.91,193.46,55.76c42.07-0.08,84.85-1.56,126.22-2.99c29.03-1,59.06-2.04,86.98-11.07
			c28.29-9.15,53.25-26.03,77.4-42.36c58.5-39.55,131.3-88.78,167.05-161.14c30.12-60.96,30.82-131.74,28.06-186.6l0,0
			c-2.99-59.5-11.41-109.48-25.75-152.81c-15.1-45.63-37.3-84.37-65.97-115.14c-13.54-14.52-28.48-28.18-42.92-41.38
			c-14.31-13.07-29.1-26.59-42.7-41.08C728.81,151.85,676.1,130.13,612.08,130.13z"/>
	</g>
</g>
</svg>
