<svg width="1080" height="1920" viewBox="0 0 1080 1920" fill="none" xmlns="http://www.w3.org/2000/svg">
<g clip-path="url(#clip0_422_20)">
<path d="M3651.59 799.871C3665.67 1080.99 3651.59 1373.06 3526.98 1625.56C3373.95 1935.61 3076.64 2144.19 2790.26 2337.89C2681.92 2411.22 2571.65 2485.26 2447.09 2525.55C2323.44 2565.54 2191.57 2570.49 2061.67 2574.86C1877.56 2581.25 1693.45 2587.6 1509.2 2587.99C1202.36 2588.6 863.338 2558.85 649.842 2338.28C564.147 2249.77 507.221 2138.06 451.562 2028.15C286.649 1702.49 451.562 1773.62 175.502 959.244C101.082 739.706 121.374 556.561 175.502 350.914C254.44 95.8078 235.793 -30.2411 349.165 -178.919C455.803 -318.628 593.747 -431.602 739.604 -529.613C1049.2 -737.666 1398.54 -882.8 1759.21 -977.791C2157.08 -1082.8 2572.44 -1063.81 2871.1 -745.279C2990.16 -618.391 3127.27 -511.454 3245.54 -384.435C3381.08 -238.907 3475.87 -61.832 3538.04 126.269C3609.79 343.379 3640.13 572.304 3651.59 799.871Z" fill="#F0ECE1" stroke="black" stroke-width="3" stroke-linecap="round" stroke-linejoin="round"/>
</g>
<defs>
<clipPath id="clip0_422_20">
<rect width="1080" height="1920" fill="white"/>
</clipPath>
</defs>
</svg>
