<svg width="50" height="50" viewBox="0 0 50 50" fill="none" xmlns="http://www.w3.org/2000/svg">
<path d="M27.4939 13.0323C27.5134 13.4202 27.4939 13.8233 27.321 14.1718C27.1086 14.5997 26.696 14.8875 26.2986 15.1548C26.1483 15.256 25.9953 15.3582 25.8224 15.4138C25.6508 15.469 25.4678 15.4758 25.2876 15.4819C25.0321 15.4907 24.7766 15.4994 24.5209 15.5C24.0951 15.5008 23.6247 15.4598 23.3284 15.1554C23.2095 15.0332 23.1305 14.8791 23.0533 14.7274C22.814 14.2576 22.5708 13.7748 22.5133 13.2513C22.4811 12.9595 22.5084 12.6623 22.5835 12.3785C22.6496 12.1288 22.7538 11.8866 22.9112 11.6815C23.0592 11.4886 23.2506 11.3327 23.453 11.1975C23.8826 10.9103 24.3674 10.71 24.8679 10.579C25.42 10.434 25.9964 10.4602 26.4108 10.8998C26.576 11.075 26.7663 11.2225 26.9304 11.3978C27.1185 11.5987 27.25 11.843 27.3363 12.1026C27.4359 12.4023 27.478 12.7182 27.4939 13.0323Z" fill="#646464" stroke="#646464" stroke-width="0.5" stroke-linecap="round" stroke-linejoin="round"/>
<path d="M24.9677 27.4939C24.5798 27.5134 24.1767 27.4939 23.8282 27.321C23.4003 27.1086 23.1125 26.696 22.8452 26.2986C22.744 26.1483 22.6418 25.9953 22.5862 25.8224C22.531 25.6508 22.5242 25.4678 22.5181 25.2876C22.5093 25.0321 22.5006 24.7766 22.5 24.5209C22.4992 24.0951 22.5402 23.6247 22.8446 23.3284C22.9668 23.2095 23.1209 23.1305 23.2726 23.0533C23.7424 22.814 24.2252 22.5708 24.7487 22.5133C25.0405 22.4811 25.3377 22.5084 25.6215 22.5835C25.8712 22.6496 26.1134 22.7538 26.3185 22.9112C26.5114 23.0592 26.6673 23.2506 26.8025 23.453C27.0897 23.8826 27.29 24.3674 27.421 24.8679C27.566 25.42 27.5398 25.9964 27.1002 26.4108C26.925 26.576 26.7775 26.7663 26.6022 26.9304C26.4013 27.1185 26.157 27.25 25.8974 27.3363C25.5977 27.4359 25.2818 27.478 24.9677 27.4939Z" fill="#646464" stroke="#646464" stroke-width="0.5" stroke-linecap="round" stroke-linejoin="round"/>
<path d="M27.4939 37.0323C27.5134 37.4202 27.4939 37.8233 27.321 38.1718C27.1086 38.5997 26.696 38.8875 26.2986 39.1548C26.1483 39.256 25.9953 39.3582 25.8224 39.4138C25.6508 39.469 25.4678 39.4758 25.2876 39.4819C25.0321 39.4907 24.7766 39.4994 24.5209 39.5C24.0951 39.5008 23.6247 39.4598 23.3284 39.1554C23.2095 39.0332 23.1305 38.8791 23.0533 38.7274C22.814 38.2576 22.5708 37.7748 22.5133 37.2513C22.4811 36.9595 22.5084 36.6623 22.5835 36.3785C22.6496 36.1288 22.7538 35.8866 22.9112 35.6815C23.0592 35.4886 23.2506 35.3327 23.453 35.1975C23.8826 34.9103 24.3674 34.71 24.8679 34.579C25.42 34.434 25.9964 34.4602 26.4108 34.8998C26.576 35.075 26.7663 35.2225 26.9304 35.3978C27.1185 35.5987 27.25 35.843 27.3363 36.1026C27.4359 36.4023 27.478 36.7182 27.4939 37.0323Z" fill="#646464" stroke="#646464" stroke-width="0.5" stroke-linecap="round" stroke-linejoin="round"/>
</svg>
